# xmcd
#
# Track frame offsets:
#	150
#	3445
#	25838
#	42629
#	52090
#	63544
#	82023
#	102170
#	113331
#	131241
#	143272
#	158081
#	172389
#	186023
#	208124
#	220279
#
# Disc length: 3113 seconds
#
# Revision: 1
# Processed by: cddbd v1.5.2PL0 Copyright (c) Steve Scherf et al.
# Submitted via: EZCDAudioConverter 2.1.7.1
#
DISCID=e60c2710
DTITLE=Various Artist - Folk Is Not A Four Letter Word
DYEAR=1900
DGENRE=
TTITLE0=Carol Batton - Intro (Bee-Ing)
TTITLE1=Kathy Smith - It's Taking So Long
TTITLE2=Sarofeen and Smoke - It's Love
TTITLE3=Brigitte Fontaine - Brigitte
TTITLE4=Linda Perhacs - (Hey Now) Who Really Cares?
TTITLE5=Breakout - Warm Up My Lips
TTITLE6=Música Dispersa - Cefalea
TTITLE7=Poppy Family - Shadows On My Wall
TTITLE8=Wendy and Bonnie - By The Sea
TTITLE9=Bonnie Koloc - My Aunt Edna
TTITLE10=Heaven and Earth - Jenny
TTITLE11=Erica Pomerance - You Used To Think
TTITLE12=Audience - Man On Box
TTITLE13=The Roundtable - Scarborough Fair
TTITLE14=Sidan - Gobraith
TTITLE15=Sidan - Ar Goll
EXTD=
EXTT0=
EXTT1=
EXTT2=
EXTT3=
EXTT4=
EXTT5=
EXTT6=
EXTT7=
EXTT8=
EXTT9=
EXTT10=
EXTT11=
EXTT12=
EXTT13=
EXTT14=
EXTT15=
PLAYORDER=
